#!OML:ASF F:\VICON\USERDATA\INSTALL\rory3\rory3.ASF
:FULLY-SPECIFIED
:DEGREES
5100
root 0.110316 18.7233 6.18658 -4.03912 -7.48466 5.56933
lowerback 3.76827 2.44308 -2.65789
upperback -0.411663 3.11775 -0.645497
thorax -2.64032 1.5874 0.634433
lowerneck -14.8816 4.28997 -5.47494
upperneck 10.7725 5.42204 11.1126
head 5.20445 3.26784 4.86812
rclavicle -2.98177e-014 -3.97569e-015
rhumerus -12.1585 41.1879 -92.3558
rradius 64.0236
rwrist 2.01548
rhand -37.2166 362.291
rfingers 7.12502
rthumb -10.2836 -747.438
lclavicle -2.98177e-014 -3.97569e-015
lhumerus 56.1286 15.2753 60.8717
lradius 59.5304
lwrist -17.2808
lhand -52.966 37.6727
lfingers 7.12502
lthumb -25.4332 -294.004
rfemur -1.96764 15.9295 9.16197
rtibia 23.9443
rfoot -17.2457 -25.7096
rtoes -7.96039
lfemur 7.39423 -24.428 -20.3294
ltibia 2.15274
lfoot -10.0428 34.855
ltoes -6.58891
5101
root 0.0958887 18.7222 6.17041 -4.04422 -8.05088 5.55292
lowerback 3.87787 2.36059 -2.54411
upperback -0.519511 3.00946 -0.57156
thorax -2.80753 1.53458 0.645946
lowerneck -14.6376 4.27622 -5.42578
upperneck 10.658 5.38347 11.184
head 5.13133 3.24928 4.8673
rclavicle 1.46604e-014 3.57812e-015
rhumerus -12.6675 41.4975 -92.8741
rradius 64.3
rwrist 2.14201
rhand -37.1444 362.124
rfingers 7.12502
rthumb -10.2139 -747.608
lclavicle 1.46604e-014 3.57812e-015
lhumerus 56.2267 14.6906 60.4591
lradius 59.3696
lwrist -17.404
lhand -52.7223 35.2892
lfingers 7.12502
lthumb -25.1997 -296.355
rfemur -2.21334 16.2357 9.17841
rtibia 23.913
rfoot -16.9789 -25.4786
rtoes -8.13182
lfemur 8.61975 -23.8236 -20.4632
ltibia -1.11319e-014
lfoot -9.0369 35.0683
ltoes -6.00945
5102
root 0.0851323 18.7203 6.15767 -4.08167 -8.62981 5.62832
lowerback 3.8977 2.28779 -2.46571
upperback -0.57859 2.91557 -0.535107
thorax -2.8745 1.48788 0.643467
lowerneck -14.333 4.24581 -5.37036
upperneck 10.5155 5.3267 11.2172
head 5.04232 3.21724 4.849
rclavicle 5.24295e-015 9.54166e-015
rhumerus -13.151 41.6979 -93.3915
rradius 64.4784
rwrist 2.24861
rhand -37.1192 362.238
rfingers 7.12502
rthumb -10.1897 -747.496
lclavicle 5.24295e-015 9.54166e-015
lhumerus 56.3314 14.0602 60.0411
lradius 59.252
lwrist -17.479
lhand -53.5607 34.9825
lfingers 7.12502
lthumb -26.0027 -296.777
rfemur -2.44135 16.4087 9.0452
rtibia 23.8558
rfoot -16.7105 -25.0707
rtoes -8.38365
lfemur 8.66964 -23.2451 -20.4501
ltibia -1.43125e-014
lfoot -9.35678 35.0169
ltoes -5.51435
5103
root 0.0759148 18.7218 6.149 -4.06158 -9.1953 5.64212
lowerback 3.77996 2.15737 -2.35087
upperback -0.479804 2.75521 -0.431814
thorax -2.70104 1.40498 0.703564
lowerneck -14.6292 4.18889 -5.45619
upperneck 10.5586 5.26632 11.2554
head 5.10706 3.194 4.88346
rclavicle -1.12065e-014 -8.34896e-015
rhumerus -13.1818 42.0778 -93.5618
rradius 64.5635
rwrist 2.35859
rhand -37.0801 362.594
rfingers 7.12502
rthumb -10.1519 -747.141
lclavicle -1.12065e-014 -8.34896e-015
lhumerus 56.6199 13.753 59.7361
lradius 59.1728
lwrist -17.7319
lhand -54.1166 35.1132
lfingers 7.12502
lthumb -26.5349 -296.725
rfemur -2.68697 16.4974 8.95904
rtibia 23.817
rfoot -16.4744 -24.5881
rtoes -8.57791
lfemur 8.6918 -22.683 -20.37
ltibia -4.77083e-015
lfoot -9.79406 34.9545
ltoes -4.73456
5104
root 0.0668673 18.7222 6.14236 -4.28297 -9.73512 5.73116
lowerback 3.85312 2.0595 -2.28014
upperback -0.308502 2.62971 -0.382262
thorax -2.56084 1.33933 0.724357
lowerneck -14.8254 4.14323 -5.39313
upperneck 10.4912 5.20145 11.244
head 5.12737 3.16735 4.87008
rclavicle -3.01656e-014 7.95139e-015
rhumerus -13.1758 42.4865 -93.6583
rradius 64.6772
rwrist 2.37267
rhand -37.1302 362.375
rfingers 7.12502
rthumb -10.2002 -747.357
lclavicle -3.01656e-014 7.95139e-015
lhumerus 57.0797 13.414 59.5878
lradius 59.1027
lwrist -18.0078
lhand -53.9896 34.5801
lfingers 7.12502
lthumb -26.4133 -297.24
rfemur -2.66692 16.5722 8.86948
rtibia 23.7894
rfoot -16.2249 -24.1535
rtoes -9.06693
lfemur 9.00244 -22.1353 -20.4962
ltibia 1.74931e-014
lfoot -10.0193 34.9135
ltoes -4.46982
5105
root 0.0550396 18.7212 6.13415 -4.63059 -10.3913 5.79496
lowerback 4.10832 2.01059 -2.23056
upperback -0.290691 2.56265 -0.2762
thorax -2.68635 1.30671 0.800574
lowerneck -14.5033 4.12087 -5.4749
upperneck 10.3718 5.18191 11.2784
head 5.03498 3.14781 4.87729
rclavicle -1.31695e-014 -1.43125e-014
rhumerus -13.8191 42.8254 -94.0948
rradius 64.8815
rwrist 2.38103
rhand -37.1192 362.352
rfingers 7.12502
rthumb -10.1896 -747.381
lclavicle -1.31695e-014 -1.43125e-014
lhumerus 57.1578 12.8998 59.3377
lradius 59.0054
lwrist -18.351
lhand -53.7059 34.3935
lfingers 7.12502
lthumb -26.1417 -297.386
rfemur -2.54306 16.7264 8.86563
rtibia 23.7854
rfoot -16.1211 -23.6348
rtoes -9.05087
lfemur 9.47992 -21.4714 -20.6305
ltibia 1.59028e-015
lfoot -10.2441 34.8682
ltoes -4.21657
5106
root 0.0403156 18.7253 6.1224 -4.68466 -11.0352 5.70121
lowerback 4.2032 1.93037 -2.13485
upperback -0.171417 2.46406 -0.0987977
thorax -2.61734 1.25601 0.935097
lowerneck -15.1618 4.04328 -5.67809
upperneck 10.6205 5.10565 11.3946
head 5.2199 3.12889 4.97476
rclavicle -4.99198e-014 -3.97569e-015
rhumerus -13.92 43.1244 -94.1392
rradius 65.0537
rwrist 2.37508
rhand -37.1754 362.673
rfingers 7.12502
rthumb -10.2438 -747.057
lclavicle -4.99198e-014 -3.97569e-015
lhumerus 57.2733 12.6174 58.7827
lradius 59.1339
lwrist -18.6439
lhand -53.9023 36.0017
lfingers 7.12502
lthumb -26.3298 -295.806
rfemur -2.6933 17.0149 9.01155
rtibia 23.7814
rfoot -16.0224 -23.3113
rtoes -8.91845
lfemur 9.62682 -20.84 -20.4625
ltibia 1.90833e-014
lfoot -10.3672 34.8459
ltoes -3.94757
5107
root 0.0229236 18.7296 6.11229 -4.61661 -11.6511 5.62827
lowerback 4.12674 1.86214 -2.06416
upperback -0.217175 2.38155 0.0350677
thorax -2.62159 1.2153 1.04024
lowerneck -14.9351 4.00881 -5.58009
upperneck 10.4618 5.05216 11.3081
head 5.14303 3.09277 4.91372
rclavicle -7.93399e-014 1.03368e-014
rhumerus -13.8754 44.0482 -94.0899
rradius 64.9111
rwrist 1.80758
rhand -37.3203 362.322
rfingers 7.12502
rthumb -10.3836 -747.401
lclavicle -7.93399e-014 1.03368e-014
lhumerus 57.1702 12.1248 58.0818
lradius 59.3784
lwrist -18.6897
lhand -54.4032 39.9501
lfingers 7.12502
lthumb -26.8092 -291.93
rfemur -2.98649 17.3641 9.13121
rtibia 23.7834
rfoot -15.7453 -23.2016
rtoes -9.30066
lfemur 9.62379 -20.2383 -20.2521
ltibia 3.33958e-014
lfoot -10.4552 34.8553
ltoes -3.81396
5108
root 0.0029813 18.7342 6.10206 -4.54099 -12.338 5.46232
lowerback 4.02316 1.81565 -1.97439
upperback -0.195528 2.33103 0.210214
thorax -2.54312 1.18938 1.17715
lowerneck -14.7802 3.95683 -5.3533
upperneck 10.1827 4.98013 11.0515
head 5.05068 3.0404 4.77501
rclavicle 2.16178e-015 9.54166e-015
rhumerus -13.9527 44.5594 -94.1121
rradius 64.9275
rwrist 1.61077
rhand -37.4338 361.901
rfingers 7.12502
rthumb -10.4932 -747.817
lclavicle 2.16178e-015 9.54166e-015
lhumerus 57.3646 11.6858 57.5049
lradius 59.1931
lwrist -18.7267
lhand -54.3489 37.5796
lfingers 7.12502
lthumb -26.7572 -294.293
rfemur -3.29677 17.8307 9.37119
rtibia 23.7896
rfoot -15.4444 -23.1332
rtoes -9.68868
lfemur 9.64266 -19.5754 -19.9253
ltibia -2.22639e-014
lfoot -10.5036 34.853
ltoes -3.94291
5109
root -0.0119619 18.7403 6.08604 -4.27662 -12.8796 5.28284
lowerback 3.8887 1.69126 -1.84201
upperback -0.275995 2.17812 0.383955
thorax -2.54671 1.11331 1.29406
lowerneck -14.6737 3.94391 -5.30406
upperneck 10.0137 4.97271 10.948
head 4.98546 3.02638 4.72425
rclavicle -1.61264e-014 7.95139e-016
rhumerus -14.2518 44.9404 -94.2603
rradius 65.0628
rwrist 1.50877
rhand -37.8238 361.909
rfingers 7.12502
rthumb -10.8693 -747.79
lclavicle -1.61264e-014 7.95139e-016
lhumerus 57.4191 11.311 56.7551
lradius 58.8509
lwrist -18.7617
lhand -53.7239 36.0041
lfingers 7.12502
lthumb -26.159 -295.778
rfemur -3.77393 18.1671 9.5384
rtibia 23.7989
rfoot -15.3719 -22.9597
rtoes -9.61022
lfemur 9.40829 -19.0586 -19.5262
ltibia -3.18055e-015
lfoot -10.6175 34.8412
ltoes -3.69614
5110
root -0.0193375 18.7445 6.07486 -3.98828 -13.2202 5.28275
lowerback 3.70039 1.51736 -1.81252
upperback -0.401384 1.95333 0.495558
thorax -2.56456 1.00286 1.40948
lowerneck -14.6995 3.89962 -5.28419
upperneck 10.0805 4.909 10.9067
head 5.01755 2.99404 4.7065
rclavicle -3.57315e-014 7.95139e-015
rhumerus -14.5882 45.214 -94.3759
rradius 65.1423
rwrist 1.28714
rhand -38.1846 362.256
rfingers 7.12502
rthumb -11.2174 -747.424
lclavicle -3.57315e-014 7.95139e-015
lhumerus 57.4998 10.9499 56.2241
lradius 58.5827
lwrist -19.0902
lhand -53.5199 34.9302
lfingers 7.12502
lthumb -25.9636 -296.823
rfemur -4.26868 18.2035 9.42705
rtibia 23.8162
rfoot -15.2903 -22.6783
rtoes -9.5394
lfemur 9.09695 -18.7211 -19.3569
ltibia 1.27222e-014
lfoot -10.6297 34.8499
ltoes -3.61589
5111
root -0.0286599 18.744 6.06627 -3.97156 -13.6346 5.37562
lowerback 3.69375 1.40036 -1.87162
upperback -0.412522 1.7964 0.563103
thorax -2.57023 0.926084 1.52162
lowerneck -14.886 3.82837 -5.27044
upperneck 10.2089 4.80162 10.9343
head 5.09751 2.94951 4.71615
rclavicle 4.83295e-014 3.18055e-015
rhumerus -15.041 45.1172 -94.5387
rradius 65.2848
rwrist 1.35447
rhand -37.9921 362.388
rfingers 7.12502
rthumb -11.0317 -747.302
lclavicle 4.83295e-014 3.18055e-015
lhumerus 57.8671 10.5513 56.1691
lradius 58.4301
lwrist -19.7393
lhand -53.4428 34.1938
lfingers 7.12502
lthumb -25.8898 -297.549
rfemur -4.51625 18.2562 9.28661
rtibia 23.8651
rfoot -15.2022 -22.3319
rtoes -9.46654
lfemur 9.09487 -18.3039 -19.3711
ltibia -3.02153e-014
lfoot -10.911 34.7666
ltoes -3.29214
5112
root -0.0384838 18.7435 6.05447 -4.07938 -14.1076 5.3516
lowerback 3.84013 1.30381 -1.79859
upperback -0.348751 1.67087 0.653276
thorax -2.58221 0.862628 1.57858
lowerneck -14.8838 3.83172 -5.48802
upperneck 9.95186 4.82985 11.2365
head 5.00218 2.9734 4.84194
rclavicle -2.41772e-014 9.54166e-015
rhumerus -15.7484 44.5587 -94.8439
rradius 65.5692
rwrist 2.14319
rhand -37.5143 362.367
rfingers 7.12502
rthumb -10.5708 -747.347
lclavicle -2.41772e-014 9.54166e-015
lhumerus 58.2771 10.1661 56.0134
lradius 58.276
lwrist -20.2668
lhand -53.2506 33.4778
lfingers 7.12502
lthumb -25.7058 -298.238
rfemur -4.61464 18.3628 9.34039
rtibia 23.9063
rfoot -14.9886 -21.9924
rtoes -9.53907
lfemur 9.26662 -17.8401 -19.2948
ltibia 6.36111e-015
lfoot -11.2659 34.6663
ltoes -2.85697
5113
root -0.0502807 18.7439 6.04067 -4.12492 -14.5273 5.30749
lowerback 3.90861 1.18064 -1.78561
upperback -0.28824 1.50909 0.767397
thorax -2.55442 0.781788 1.69811
lowerneck -14.482 3.8593 -5.73712
upperneck 9.22863 4.91696 11.5601
head 4.69069 3.01042 4.95481
rclavicle -1.635e-014 -2.62396e-014
rhumerus -15.7667 45.1149 -94.6726
rradius 65.5407
rwrist 2.03618
rhand -37.3216 362.322
rfingers 7.12502
rthumb -10.3849 -747.401
lclavicle -1.635e-014 -2.62396e-014
lhumerus 58.6 9.80529 55.7054
lradius 58.069
lwrist -20.6587
lhand -53.2966 32.5052
lfingers 7.12502
lthumb -25.7498 -299.217
rfemur -4.74641 18.5415 9.42071
rtibia 23.9193
rfoot -14.8298 -21.7698
rtoes -9.67442
lfemur 9.36252 -17.4304 -19.1868
ltibia 6.36111e-015
lfoot -11.2498 34.645
ltoes -2.92431
5114
root -0.0645661 18.7449 6.023 -4.0575 -15.0431 5.08262
lowerback 3.99846 1.07674 -1.64443
upperback -0.276211 1.37999 0.931356
thorax -2.58757 0.716761 1.79419
lowerneck -14.3702 3.77859 -5.81016
upperneck 9.01003 4.81473 11.7228
head 4.60918 2.96264 5.00143
rclavicle -2.26366e-014 -3.18055e-015
rhumerus -16.0718 44.9158 -94.7035
rradius 65.5992
rwrist 2.36157
rhand -36.851 362.578
rfingers 7.12502
rthumb -9.93089 -747.168
lclavicle -2.26366e-014 -3.18055e-015
lhumerus 58.8935 9.43719 55.3053
lradius 57.8217
lwrist -21.0657
lhand -53.3632 32.0931
lfingers 7.12502
lthumb -25.8136 -299.638
rfemur -4.98476 18.8253 9.68589
rtibia 23.916
rfoot -14.7079 -21.5682
rtoes -9.62356
lfemur 9.36363 -16.9416 -18.832
ltibia -4.77083e-015
lfoot -11.1509 34.6291
ltoes -3.00806
